<svg id="Layer_2" data-name="Layer 2" xmlns="http://www.w3.org/2000/svg" viewBox="0 0 1078.48 76.32"><defs><style>.cls-1{fill:#2e222d;}.cls-2{fill:none;}</style></defs><path class="cls-1" d="M622.23,70.39a4.26,4.26,0,0,1-.82,3,3.69,3.69,0,0,1-2.78.87h-22a3.68,3.68,0,0,1-2.77-.87A4.22,4.22,0,0,1,593,70.4V14.15a13.16,13.16,0,0,0-.44-4A5.78,5.78,0,0,0,591,7.88a30.23,30.23,0,0,0-3.7-2.78,1,1,0,0,1-.55-1V2.81c0-.72.44-1.09,1.31-1.09h30.52a3.7,3.7,0,0,1,2.78.87,4.22,4.22,0,0,1,.82,2.94Z"/><path class="cls-1" d="M843.11,3.37A10.75,10.75,0,0,0,837.27,2L812,2.11c-.87,0-1.31.37-1.3,1.1v1.3c0,.51.37,1,1.1,1.42a13.09,13.09,0,0,1,3.45,2.92,5.37,5.37,0,0,1,.94,3.16,7.13,7.13,0,0,1-.64,2.73q-11.87,28-16.81,40.74t-4.94,15.29a3.74,3.74,0,0,0,1.16,2.88,4.78,4.78,0,0,0,3.33,1l28.45-.14c2.25,0,3.38-.93,3.37-2.74,0-.16,0-.35,0-.56l-4-15.31,4.73,0,4.42,17a3.24,3.24,0,0,0,.49.58,4.7,4.7,0,0,0,3.33,1l27.36-.14q3.6,0,3.58-3.5,0-2.3-2.11-7.62L846.56,7.94A9,9,0,0,0,843.11,3.37Zm-20.4,21.36,5.83,22.45-4.73,0-5.54-21.34a2,2,0,0,1,1.41-2.39l.64-.16A2,2,0,0,1,822.71,24.73Z"/><path class="cls-1" d="M751.83,67.81l-.58-.31a2,2,0,0,1-.81-2.65L782.57,4.69C782.2,2.89,780.78,2,778.3,2L720,2.18a3.66,3.66,0,0,0-2.77.88A4.22,4.22,0,0,0,716.4,6l.09,27.47a7.27,7.27,0,0,0,1.32,4.79c.88,1,2.33,1.52,4.37,1.51h4.14a3.39,3.39,0,0,0,2-.55A7.54,7.54,0,0,0,730,37L744.2,13.56h0l2.5-4.13a2,2,0,0,1,2.7-.66l.57.34a2,2,0,0,1,.66,2.69L715.11,70.56a3,3,0,0,0,0,.42q0,3.7,4.38,3.69l61.58-.2a3.69,3.69,0,0,0,2.78-.88,4.3,4.3,0,0,0,.81-3l-.09-27.47a7.33,7.33,0,0,0-1.32-4.79c-.88-1-2.34-1.52-4.37-1.51l-5.67,0a3.21,3.21,0,0,0-2.07.61,7.36,7.36,0,0,0-1.62,2.13L755,66.16c-.25.49-.48.89-.71,1.26l0,0A2,2,0,0,1,751.83,67.81Z"/><path class="cls-1" d="M670.91,68l-.59-.32a2,2,0,0,1-.79-2.65L702.06,4.71C701.7,2.91,700.29,2,697.8,2l-58.32-.06a3.72,3.72,0,0,0-2.78.87,4.27,4.27,0,0,0-.82,2.94l0,27.47a7.25,7.25,0,0,0,1.3,4.8c.87,1,2.32,1.53,4.36,1.53h4.14a3.25,3.25,0,0,0,2-.55A5.85,5.85,0,0,0,649,37.46l17.2-28.17a2,2,0,0,1,2.7-.65l.57.35a2,2,0,0,1,.65,2.69L634.32,70.25a3.55,3.55,0,0,0,0,.46q0,3.71,4.36,3.71l61.59.06a3.68,3.68,0,0,0,2.78-.86,4.32,4.32,0,0,0,.82-3l0-27.47a7.27,7.27,0,0,0-1.31-4.79c-.87-1-2.32-1.53-4.36-1.54h-5.67a3.27,3.27,0,0,0-2.07.6,7.29,7.29,0,0,0-1.63,2.12L674.23,66v0l-.65,1.21A2,2,0,0,1,670.91,68Z"/><path class="cls-1" d="M573.57,8.61Q566.46,2.1,552.5,2.05l-41.75-.14c-.87,0-1.31.36-1.31,1.09V4.31a1.08,1.08,0,0,0,.54,1,30.88,30.88,0,0,1,3.7,2.79,5.68,5.68,0,0,1,1.51,2.3,13.18,13.18,0,0,1,.43,4l-.19,56.24a4.43,4.43,0,0,0,.75,3,3.67,3.67,0,0,0,2.83.88l22,.07a3.65,3.65,0,0,0,2.84-.86,4.45,4.45,0,0,0,.77-2.94l.07-19.08A31.38,31.38,0,0,0,554.19,53q12.19,0,19.31-6.81t7.15-18.4Q580.69,15.11,573.57,8.61Zm-24.36.88-.07,32.34a2,2,0,0,1-2,2h-.66a2,2,0,0,1-2-2l.07-32.34a2,2,0,0,1,2-1.95h.66A2,2,0,0,1,549.21,9.49Z"/><path class="cls-2" d="M425,52.08l8.16,13.38a2,2,0,0,1-.09-.2Z"/><path class="cls-1" d="M468.91,5.38a4.27,4.27,0,0,0-.82-2.94,3.69,3.69,0,0,0-2.79-.86l-24.59.08a2.9,2.9,0,0,0-1,.3c-.8.52-.7,1.61-.88,5.77a4.87,4.87,0,0,0,.06,1,5.11,5.11,0,0,0,.2.7l20.13,32.85a2,2,0,0,1-.64,2.7l-.14.08a2,2,0,0,1-2.69-.65L432.83,7.1A14.68,14.68,0,0,0,429,3.44a14.92,14.92,0,0,0-7.85-1.72l-22.46.07c-.87,0-1.31.37-1.3,1.1V4.2a1,1,0,0,0,.55,1,29.9,29.9,0,0,1,3.71,2.77,5.84,5.84,0,0,1,1.54,2.29,13.34,13.34,0,0,1,.45,4l.18,56.25a4.27,4.27,0,0,0,.83,2.94,3.66,3.66,0,0,0,2.78.86l23.68-.07a3,3,0,0,0,1.31-.57c1-.76,1-2.45,1.13-5.77a5.62,5.62,0,0,0-.1-1.49,4.21,4.21,0,0,0-.29-.89L425,52.08,413.66,33.57a2,2,0,0,1,.65-2.7h0a2,2,0,0,1,2.7.65L439.45,68.1a15.5,15.5,0,0,0,4.29,4.29,14.92,14.92,0,0,0,7.85,1.72l14,0a3.65,3.65,0,0,0,2.78-.88,4.27,4.27,0,0,0,.81-2.94Z"/><path class="cls-1" d="M388.49,70.6V63h0V61.4c0-.08,0-.15,0-.23v-.65h0c-.13-4.13-1.09-7.24-2.92-9.31s-5-3.33-9.05-3.33H363.1a4.07,4.07,0,0,0-2.94.87,2.5,2.5,0,0,0-.46.7l0,16a2,2,0,0,1-2,2H357a2,2,0,0,1-1.95-2l.07-24.83,4.58,0h16.46c.87,0,1.31-.36,1.31-1.09V38.28s0,0,0-.05V35.39c0-.8-.44-1.2-1.31-1.2h-4.86l-16.18,0,0-7.76c0-.64,0-1.28,0-1.93v-3h0l0-10.65a2,2,0,0,1,2-1.95h.67a2,2,0,0,1,1.95,2l0,15.34a2.67,2.67,0,0,0,.4.56,4.07,4.07,0,0,0,2.94.87h13.41q6.11,0,9.05-3.32c1.93-2.18,2.9-5.5,2.94-9.95h0v-.18s0,0,0-.05V11.44h0V5.74a4.27,4.27,0,0,0-.82-2.94,3.7,3.7,0,0,0-2.78-.87l-63.55,0c-.87,0-1.31.37-1.31,1.09V4.31a1.06,1.06,0,0,0,.55,1,30,30,0,0,1,3.7,2.78,5.78,5.78,0,0,1,1.53,2.29,13.23,13.23,0,0,1,.43,4V70.59a4.27,4.27,0,0,0,.81,2.94,3.72,3.72,0,0,0,2.78.87l55.05,0a3.65,3.65,0,0,0,2.78-.88A4.22,4.22,0,0,0,388.49,70.6Z"/><polygon class="cls-2" points="273.9 17.61 273.81 17.56 258.83 42.29 273.9 17.61"/><path class="cls-1" d="M312.25,70.58V43.11a7.27,7.27,0,0,0-1.31-4.79c-.87-1-2.32-1.53-4.36-1.53H300.9a3.27,3.27,0,0,0-2.07.6,7.36,7.36,0,0,0-1.63,2.13L287.56,57h0L283,65.3a2,2,0,0,1-2.67.77l-.18-.1a2,2,0,0,1-.77-2.66L310.05,7.63a6.26,6.26,0,0,0,.44-2q0-3.7-4.36-3.7H247.81a3.7,3.7,0,0,0-2.78.87,4.27,4.27,0,0,0-.81,2.94V33.2a7.3,7.3,0,0,0,1.31,4.8c.87,1,2.32,1.53,4.36,1.53H254a3.31,3.31,0,0,0,2-.54l.09-.07,17.41-28.75a2,2,0,0,1,2.69-.66l.17.1a2,2,0,0,1,.66,2.69l-3.2,5.27.09.05L258.83,42.29l-14.28,23.4a16.28,16.28,0,0,0-1,1.79,7.91,7.91,0,0,0-.87,3.22q0,3.7,4.36,3.71h61.59a3.7,3.7,0,0,0,2.78-.87A4.3,4.3,0,0,0,312.25,70.58Z"/><path class="cls-1" d="M233.94,38.1q0-18.2-9.76-28.12T196.55.06Q178.67.06,168.92,10T159.16,38.1q0,18.21,9.75,28.18t27.64,10q17.87,0,27.63-10T233.94,38.1ZM196.88,69.18h-.67a2,2,0,0,1-2-2l0-57.46a2,2,0,0,1,2-2h.66a2,2,0,0,1,2,2l0,57.47A2,2,0,0,1,196.88,69.18Z"/><path class="cls-1" d="M35.38,70.92l-.32-25.29h21c.87,0,1.31-.36,1.31-1.09V42.2s0,0,0,0V39.32c0-.8-.44-1.2-1.31-1.2h-8l-8.43,0L35,38l-.35-27.56a2,2,0,0,1,1.94-2h.66a2,2,0,0,1,2,1.94l.22,17.48a2.86,2.86,0,0,0,.69,1.37,4.06,4.06,0,0,0,3,.88H56.47q6.09,0,9-3.32c1.83-2.05,2.79-5.14,2.93-9.23h0v-.53c0-.14,0-.27,0-.42V14.37h0V5.75a4.27,4.27,0,0,0-.82-2.94,3.7,3.7,0,0,0-2.78-.87l-63.55,0C.44,1.91,0,2.27,0,3V4.3a1.08,1.08,0,0,0,.54,1A29.5,29.5,0,0,1,4.25,8.07a5.78,5.78,0,0,1,1.52,2.29,13.11,13.11,0,0,1,.44,4l0,56.24a4.25,4.25,0,0,0,.82,3,3.69,3.69,0,0,0,2.78.87h22a3.7,3.7,0,0,0,2.78-.87A4,4,0,0,0,35.38,70.92Z"/><path class="cls-1" d="M154.76,73.2V71.89a1.38,1.38,0,0,0-.17-.71,2.81,2.81,0,0,0-.93-.7,11,11,0,0,1-4.15-3.37,10.43,10.43,0,0,1-1-5.12V55.12Q148.46,38,131,37.17a20.22,20.22,0,0,0,11.65-5.91,15.09,15.09,0,0,0,4.66-10.8q0-9.5-6.84-14T119.39,1.88L78.74,2c-.88,0-1.31.36-1.31,1.09V4.37a1.36,1.36,0,0,0,.17.71,2.81,2.81,0,0,0,.93.7,11,11,0,0,1,4.15,3.37,10.43,10.43,0,0,1,1,5.12l.12,56.36a4.22,4.22,0,0,0,.83,2.94,3.69,3.69,0,0,0,2.78.87l22,0a3.64,3.64,0,0,0,2.77-.88,2.57,2.57,0,0,0,.55-1L112.68,41l.32,0c2.91-.33,3.93.78,4.27,1.82l.06,29.46a2.94,2.94,0,0,0,.64,1.3,3.7,3.7,0,0,0,2.78.87l32.71-.08C154.33,74.29,154.76,73.93,154.76,73.2ZM114.57,8.85h.66a2,2,0,0,1,2,2l0,20.92c-.71,3-3.91,2.32-4.58,2.14l0-23A2,2,0,0,1,114.57,8.85Z"/><path class="cls-1" d="M926.23,74.57a23.91,23.91,0,0,1-10.78-2.3,16.59,16.59,0,0,1-7.15-6.67,20.43,20.43,0,0,1-2.54-10.41,20.61,20.61,0,0,1,1.39-7.63,18,18,0,0,1,4.11-6.22,19,19,0,0,1,6.6-4.21,23.4,23.4,0,0,1,8.62-1.52,27.32,27.32,0,0,1,6.53.79,20,20,0,0,1,5.48,2.15l-1.59,8.27a22.4,22.4,0,0,0-4.84-1.77,20.58,20.58,0,0,0-5-.62,11,11,0,0,0-8,2.88,10.43,10.43,0,0,0-3,7.83,10.25,10.25,0,0,0,3,7.77c2,1.89,4.69,2.84,8.14,2.84a19.69,19.69,0,0,0,5.21-.8,27.68,27.68,0,0,0,5.35-2.09l1,8.62A21.42,21.42,0,0,1,933,73.72,28.48,28.48,0,0,1,926.23,74.57Z"/><path class="cls-1" d="M955.28,36.16h10.06V66h16.09V74H955.28Z"/><path class="cls-1" d="M1013.37,74.81q-8.32,0-12.86-4.45T996,57.63V36.16H1006V56.93c0,3.06.61,5.33,1.82,6.83a6.7,6.7,0,0,0,5.51,2.24q7.36,0,7.37-9.07V36.16h10.06V57.63q0,8.26-4.5,12.73T1013.37,74.81Z"/><path class="cls-1" d="M1048.49,36.16h14.85q6.47,0,9.83,2.48a8.46,8.46,0,0,1,3.37,7.27,9.88,9.88,0,0,1-1.1,4.6,7.92,7.92,0,0,1-3,3.26,8.5,8.5,0,0,1,4.44,3.41,10.21,10.21,0,0,1,1.64,5.76q0,5.49-3.51,8.28T1064.53,74h-16Zm9.12,15.09h4.73q5,0,5-4,0-3.82-4.93-3.83h-4.78Zm0,15.49h6.08a5.76,5.76,0,0,0,3.78-1.07,3.81,3.81,0,0,0,1.3-3.11q0-4.14-5.28-4.14h-5.88Z"/></svg>