<svg width="308" height="350" viewBox="0 0 308 350" xmlns="http://www.w3.org/2000/svg"><title>pizza-slice</title><g fill="none" fill-rule="evenodd"><path d="M18.49 75.328s42.426 117.181 64.567 169.087c22.142 51.906 48.795 102.443 54.4 104.684 5.606 2.242 78.452-131.172 82.305-141.208 3.854-10.034 37.728-71.3 47.92-89.286 10.193-17.986 13.736-33.48 14.293-39.985.557-6.505-51.14-50.779-102.564-49.546-51.423 1.231-147.585 5.758-160.921 46.254" fill="#FFC543"/><path d="M31.274 92.336s34.879 96.38 54.729 142.913c19.85 46.533 48.77 93.85 53.795 95.858 5.025 2.009 65.305-119.604 68.76-128.601 3.455-8.996 33.822-63.92 42.96-80.045 9.138-16.123 12.313-30.013 12.813-35.846.5-5.832-43.13-24.605-89.23-23.5-46.102 1.104-120.63 3.982-143.827 29.221" fill="#FCE777"/><path d="M279.12 82.335c-.043-.31-.068-.654-.16-.952-.467-1.492-2.102-2.868-3.753-2.674a8.746 8.746 0 0 1-1.715.019 14.87 14.87 0 0 0 2.43-1.782c2.279-2.054.214-5.88-2.607-5.772-3.302.127-6.383.88-9.695.287-3.382-.606-6.503-2.083-9.476-3.747-7.309-4.091-13.94-9.385-22.368-10.992-7.231-1.378-14.766-2.056-22.068-3.073-3.424-.478-7.574-1.117-11.471-.867-5.22-1.459-11.967 1.074-16.977 1.736-8.096 1.07-15.716-2.35-23.79-1.26-7.373.995-14.072 3.441-21.622 3.32-7.717-.125-15.337-1.644-23.009-2.35-15.45-1.42-28.728 3.073-43.028 8.341-8.028 2.957-16.248 5.363-24.496 7.626-4.19 1.15-8.429 2.237-12.724 2.92-3.89.617-8.396.034-11.736 2.291-1.526 1.033-1.333 2.998.119 3.964 5.308 3.527 15.628.54 21.417-.804 6.983-1.622 13.966-3.582 20.822-5.767a3.545 3.545 0 0 0-.298 2.133c.107.635.344 1.161.75 1.662.467.577 1.221 1.179 1.989 1.27.822.097 1.528.12 2.333-.114.373-.107.724-.28 1.048-.495a3.828 3.828 0 0 0 2.46-1.778c.304-.505.544-1.372.448-1.969a3.685 3.685 0 0 0-.54-1.783 2.737 2.737 0 0 0-.998-1.028c-.106-.076-.212-.116-.317-.178 6.326-2.238 12.552-4.776 19.006-6.625 8.13-2.33 16.068-2.83 24.463-1.946 7.262.765 14.473 2.075 21.787 2.294 7.516.225 14.1-1.739 21.39-3.069 3.333-.608 6.605-.327 9.873.137-.033.017-.069.03-.102.048-1.259.691-1.993 2.224-1.938 3.625.05 1.315.86 2.917 2.15 3.436 1.275.514 2.512.902 3.911.774 1.56-.143 3.139-.58 4.25-1.752 1.341-1.414 1.285-3.558.213-4.97 1.623.131 3.256.167 4.907.013 3.185-.297 6.318-.95 9.468-1.493 1.562 4.456 8.011 7.948 12.178 7.793 2.71-.1 5.153-1.309 7.42-2.703 1.887-1.162 3.98-2.2 5.825-3.466 7.54 1.613 15.415 1.337 22.444 4.825 6.132 3.042 14.587 9.607 22.883 12.134 3.844 4.15 10.117 7.356 15.278 6.673 1.865-.248 3.92-1.743 3.625-3.912" fill="#EF5000"/><path d="M217.592 72.072c.213-.57.335-1.295.217-1.936a3.65 3.65 0 0 0-.515-2.054c-.62-1.008-1.928-1.84-3.155-1.686-.06.007-.122.018-.182.026-1.279-.354-2.631.061-3.824.727-.387.216-.751.587-1.036 1.008-.015.01-.032.014-.047.024-1.833 1.23-2.127 3.718-.557 5.298 1.93 1.943 5.413 2.15 7.59.478.685-.526 1.199-1.054 1.509-1.885M42.31 83.486c.309-1.593-.647-2.998-2.185-3.417-1.33-.364-2.907.633-3.151 1.99a2.82 2.82 0 0 0-.032.66 2.5 2.5 0 0 0 0 .844c.156.926.939 1.97 1.948 2.085.751.088 1.445.054 2.106-.341.635-.38 1.171-1.086 1.314-1.821" fill="#EF5000"/><path d="M39.972 95.253c-.517-5.937 29.382-11.314 41.178-14.438 11.796-3.126 67.118 3.686 76.163-.404 9.044-4.088 38.816-4.09 54.879-.055 16.063 4.037 35.531 14.688 36.727 19.638 1.194 4.949-11.747 45.474-24.406 59.037-12.658 13.566-46.014 82.23-55.76 100.242-9.747 18.013-23.328 41.21-30.213 42.742-6.884 1.532-28.748-42.18-31.84-54.781-3.09-12.602-14.235-50.289-20.434-63.547-6.2-13.257-44.246-64.96-46.294-88.434" fill="#FFF097"/><path d="M170.726 108.12c1.345-15.113-8.503-37.234-26.207-37.115-2.48.016-2.758 3.152-1 4.335 6.637 4.467 12.98 8.33 16.772 15.699 3.83 7.442 3.964 16.102 1.487 23.988-5.18 16.489-21.154 26.65-37.534 29.43-8.543 1.45-17.59.982-25.158-3.591-7.207-4.355-13.279-11.277-17.369-18.58-4.095-7.31-6.061-15.668-4.983-24.028 1.174-9.102 5.835-15.08 11.44-21.922.886-1.081-.01-3.086-1.547-2.508-13.986 5.259-18.568 24.53-16.124 37.72 2.816 15.193 14.077 30.974 28.2 37.636 14.298 6.745 32.337 3.377 45.857-3.732 14.091-7.409 24.73-21.223 26.166-37.332m69.893 46.667c-21.91-14.51-56.783-9.784-69.237 14.742-12.22 24.064.093 51.568 22.513 64.186 4.318 2.43 7.947-4.359 3.629-6.786-18.977-10.669-29.87-34.091-19.039-54.463 5.01-9.424 14.068-15.4 24.4-17.558 12.575-2.627 24.044 1.489 36.167 4.087 2.618.562 3.63-2.84 1.567-4.208M142.3 230.404c-11.44-24.61-44.728-41.42-70.56-28.864-2.385 1.16-1.14 5.512 1.536 5.063 10.957-1.837 21.246-3.1 32.084.308 11.713 3.684 21.772 11.954 27.933 22.536 5.854 10.054 7.746 21.964 2.612 32.722-2.801 5.872-6.984 10.884-11.47 15.54-3.753 3.892-7.728 9.02-13.106 10.398-2.936.752-2.678 4.417-.577 5.854 5.426 3.713 11.185-3.099 14.764-6.49 5.46-5.172 10.685-10.665 14.72-17.049 7.834-12.397 8.185-26.85 2.064-40.018m-70.162-82.98c-1.985-5.063-5.725-8.74-10.81-10.628-2.58-.957-5.269-1.393-7.943-1.988-2.675-.595-5.246-2.117-7.888-1.018-.75.312-1.074.928-.925 1.73.653 3.489 4.507 4.155 7.535 4.947 5.449 1.425 10.581 2.434 13.26 7.98 4.975 10.301-2.416 20.578-8.172 28.707-2.344 3.31 3.367 7.481 5.837 4.217 7.243-9.57 13.877-21.783 9.106-33.947M253.1 133.018c-2.491-7.732-8.448-18.634-4.483-26.785 1.857-3.816 5.628-6.925 9.2-9.09 3.838-2.325 8.075-2.947 12.093-4.705 2.13-.933 2.59-4.429-.178-4.945-9.885-1.842-22.337 6.15-27.246 14.383-5.855 9.82-1.11 24.879 3.83 34.193 2.008 3.79 8.077.962 6.784-3.051" fill="#FFC543"/><path d="M2.803 38.213C5.291 31.993 56.17 6.27 133.548 1.527 210.924-3.215 285.805 17.922 302 36.41c16.196 18.486-9.837 51.467-21.562 50.852-11.725-.613-39.742-23.152-45.073-24.491-5.332-1.339-61.166-10.025-76.778-6.277-15.612 3.748-37.732 5.529-53.412.925-2.627-2.16-46.208 10.069-59.468 15.074-13.26 5.006-20.109 7.392-29.193 5.559C7.429 76.218-3.92 55.03 2.803 38.213" fill="#F4AC1B"/><path d="M152.043 164.88s-.99 8.92.323 10c1.312 1.08 7.517-7.698 7.517-7.698s-5.899-2.399-7.84-2.302m-103.68-52.24s-.99 8.92.323 10c1.312 1.08 7.517-7.698 7.517-7.698s-5.898-2.399-7.84-2.303m57.075 49.623s4.634 4.057 4.98 5.531c.346 1.475-10.898 9.07-12.367 8.285l-3.528-1.886s8.66-11.246 10.915-11.93m48.624 59.639s-3.671 3.33-2.358 4.41c1.313 1.08 12.27 3.914 12.643 3.925.372.01 1.26-5.185-.64-6.58-1.9-1.394-9.645-1.755-9.645-1.755m24.635-82.837s-.287-5.824 2.83-5.291c3.116.533 11.511 4.643 12.202 6.524.69 1.882-2.829 5.292-2.829 5.292s-12.268-4.783-12.203-6.525m29.513-6.9s.876-8.224 2.544-9.223c1.667-.998 15.052 5.78 13.815 7.387-1.237 1.607-16.36 1.836-16.36 1.836M43.723 94.788s-2.673-7.828-1.582-9.436c1.092-1.609 16.088-1.104 15.643.873-.445 1.979-14.06 8.563-14.06 8.563M194.95 84.63s-1.516 6.372.699 7.177c2.215.807 11.648-.575 11.648-.575s2.025-3.082.554-3.866c-1.47-.782-12.9-2.736-12.9-2.736m38.575-4.7s-3.632 2.973-3.81 4.01c-.178 1.04 8.36 7.874 8.931 7.423.571-.45 1.776-3.322 1.776-3.322s-3.84-6.475-6.897-8.11m-94.137 204.053s7.351-1.362 9.352-1.047c2.001.314 1.018 3.568 1.018 3.568l-9.27 1.09-1.1-3.611zm-7.151 29.818s2.24-2.96 4.161-2.311c1.92.649 4.581 6.985 4.581 6.985l-4.983 2.25s-2.684-5.216-3.759-6.924m38.61-56.844s-3.533 3.78-2.828 5.292c.704 1.51 9.659 6.676 9.659 6.676l3.457-6.467s-7.916-4.988-10.288-5.5m-98.462-63.986c-1.391 1.437-3.527-1.887-3.527-1.887l4.65-4.456s.565 4.599-1.123 6.343" fill="#9B6E08"/><path d="M67.915 207.087s35.435-17.592 63.754 15.693c28.317 33.285-11.299 66.147-26.143 73.522l-37.611-89.215z" fill="#E82600"/><path d="M77.618 220.144c-1.843-4.372.744-9.333 5.383-10.336 10.456-2.26 28.674-2.56 44.283 15.786 19.315 22.703.506 45.17-13.622 55.825-3.934 2.967-9.607 1.434-11.52-3.106l-24.524-58.169z" fill="#FF462E"/><path d="M100.739 230.434c6.322-2.116 15.635 11.76 5.335 17.593s-13.161-14.974-5.335-17.593m30.373 18.13c5.626 1.496 2.792 11.743-4.826 12.561-7.619.818-.8-14.058 4.826-12.561m-12.594-19.028c5.8-2.38-.1-14.417-10.16-11.858-10.063 2.558 1.761 15.306 10.16 11.858m-34.54-19.362c4.31 1.129 1.228 4.773-2.655 4.965-3.882.192-1.655-6.093 2.655-4.965m28.092 58.458c9.38-.755 7.816 12.993-.146 13.53-7.962.537-5.384-13.085.145-13.53" fill="#FFC5CB"/><path d="M245.716 159.778s-43.286-26.924-68.817 12.343c-20.36 31.312 13.502 62.407 27.953 62.61 0 0 32.53-58.225 40.864-74.953" fill="#E82600"/><path d="M234.763 171.885c2.534-4.77.324-10.711-4.74-12.583-12.326-4.555-34.547-8.33-49.56 14.76-13.909 21.393 1.886 42.665 15.039 50.344 4.332 2.53 9.895.999 12.334-3.385 6.252-11.24 19.275-34.732 26.927-49.136" fill="#FF462E"/><path d="M188.404 186.59c10.559.855 5.29 19.46-1.493 19.235-6.782-.225-6.84-19.912 1.493-19.236m35.234-22.706c7.56 2.632.797 20.426-8.16 15.26-8.955-5.167-.126-18.145 8.16-15.26m-14.505 35.977c3.357.34 8.504 18.302-3.503 18.842-12.006.54-4.164-19.622 3.503-18.843m8.004-9.247c-1.299 2.589 7.791 2.67 7.74-.768-.053-3.438-5.496-3.702-7.74.768m-19.521-26.691c3.416 2.185-.03 8.686-4.088 7.646-4.06-1.04.485-9.95 4.088-7.646" fill="#FFC5CB"/><path d="M40.654 135.541s22.416.626 28.275 15.118c5.859 14.493-11.428 29.528-11.428 29.528s-12.489-32.928-16.847-44.646" fill="#E82600"/><path d="M44.76 141.753c-.565-1.508.683-3.075 2.28-2.851 5.683.799 16.71 3.48 20.307 12.38 3.422 8.465-2.544 17.148-6.508 21.664-1.363 1.553-3.891 1.083-4.624-.85-2.675-7.062-8.241-21.763-11.455-30.343" fill="#FF462E"/><path d="M53.242 143.237c1.696-1.837 15.507 2.81 12.206 8.984-3.3 6.172-15.858-5.027-12.206-8.984m7.27 18.216c-1.959 2.956 2.805 3.944 4.309.424 1.503-3.519-2.351-3.38-4.31-.424" fill="#FFC5CB"/><path d="M113.322 61.53c24.915-5.568 49.748 12.191 54.418 39.39 4.67 27.2-30.189 46.985-47.458 48.73-17.27 1.746-43.268-17.645-45.022-42.599-1.754-24.953 10.007-39.25 38.062-45.52" fill="#E82600"/><path d="M115.041 65.21c21.854-4.884 43.636 10.693 47.733 34.55 4.096 23.858-26.48 41.214-41.628 42.745-15.148 1.53-37.953-15.478-39.491-37.366-1.538-21.888 8.778-34.428 33.386-39.928" fill="#FF462E"/><path d="M104.355 127.068c-3.286 5.117 9.332 12.881 10.442 5.583 1.11-7.297-6.342-11.967-10.442-5.583m24.135-1.505c6.278 5.235 20.185-7.39 10.957-13.01-9.229-5.622-17.839 7.273-10.957 13.01m9.9-42.052c6.032 3.912 2.173 13.467-6.125 11.455-8.298-2.012.092-15.366 6.125-11.455m-36.036 22.276c10.723 1.558 14.582-20.367 2.79-23.584-11.79-3.216-15.206 21.78-2.79 23.584m9.276 10.885c-3.709-2.057.337-9.395 5.997-6.617 5.661 2.777.087 9.995-5.998 6.617" fill="#FFC5CB"/><path d="M279.663 90.232s-24.814-5.747-36.461 16.036c-8.174 15.288 12.13 34.46 12.13 34.46s20.035-34.003 24.33-50.496" fill="#E82600"/><path d="M270.85 102.65c1.51-3.676-1.355-7.695-5.315-7.36-5.884.498-13.753 3.002-18.539 11.952-3.39 6.344.016 13.613 3.52 18.643 2.249 3.228 7.11 2.973 9.016-.468 3.364-6.07 8.212-15.21 11.318-22.767" fill="#FF462E"/><path d="M254.194 124.055c4.058-1.325 6.884 5.76 2.241 7.247-4.642 1.486-7.508-5.527-2.241-7.247m-2.368-13.176c-.718 5.608 6.117 6.484 7.781.383 1.666-6.1-7.078-5.87-7.781-.383m15.318-16.202c3.445-.862 5.484 6.259 1.38 7.088-4.102.83-5.089-6.16-1.38-7.088" fill="#FFC5CB"/><path d="M236.24 61.74s.33-.436.923-1.123c.303-.336.649-.763 1.044-1.244a50.22 50.22 0 0 0 1.32-1.58c.492-.558.96-1.223 1.496-1.866.552-.632 1.009-1.408 1.593-2.095.527-.738 1.096-1.477 1.59-2.287.568-.754 1.056-1.582 1.575-2.385.498-.817 1.031-1.616 1.462-2.455l1.359-2.427c.381-.816.832-1.58 1.2-2.335l1.05-2.145c.329-.673.617-1.3.876-1.862.271-.56.519-1.055.696-1.472l.647-1.31.236 1.452c.069.467.105 1.03.113 1.68a14.2 14.2 0 0 1-.087 2.18c-.043.807-.186 1.662-.385 2.558-.154.913-.446 1.839-.76 2.793-.35.939-.678 1.936-1.186 2.863-.455.955-1.015 1.871-1.547 2.806-.623.875-1.218 1.77-1.893 2.584-.67.816-1.41 1.551-2.102 2.275-.72.7-1.473 1.317-2.204 1.87a17.774 17.774 0 0 1-2.142 1.443c-.674.424-1.329.755-1.923 1.02a12.83 12.83 0 0 1-1.554.63c-.883.301-1.397.432-1.397.432m-72.859-4.892s-.02-.422.002-1.113c.02-.693.057-1.66.123-2.777.05-.554.041-1.164.105-1.782.074-.618.028-1.29.12-1.949.04-.67.1-1.356.101-2.058.074-.692.083-1.4.117-2.104.035-.704.093-1.41.087-2.105.01-.696.048-1.382.089-2.052-.01-.666.051-1.32.08-1.946.015-.623.055-1.221.091-1.78.054-1.115.145-2.086.208-2.78l.145-1.114s.26.319.717.875c.424.573.988 1.429 1.453 2.535.27.545.49 1.158.682 1.816.231.654.384 1.363.516 2.101.115.739.265 1.508.265 2.295.04.788.014 1.587.009 2.389-.088.796-.156 1.593-.288 2.37-.148.774-.356 1.524-.54 2.247-.199.72-.483 1.395-.748 2.027-.25.637-.57 1.21-.868 1.73a12.987 12.987 0 0 1-1.685 2.372c-.477.529-.781.803-.781.803M99.695 52.94s-.396-.174-1.054-.542a10.325 10.325 0 0 1-1.14-.728c-.43-.299-.896-.658-1.361-1.094-.48-.424-.992-.9-1.461-1.461-.482-.551-.988-1.145-1.434-1.81-.426-.676-.886-1.369-1.287-2.111-.391-.747-.717-1.54-1.064-2.324-.264-.815-.55-1.623-.755-2.44-.25-.806-.34-1.64-.456-2.43-.094-.797-.163-1.569-.129-2.31a12.03 12.03 0 0 1 .137-2.066c.062-.635.18-1.214.313-1.723a10.5 10.5 0 0 1 .395-1.3l.464-1.103.431 1.106c.113.348.27.764.437 1.235.155.466.33.99.518 1.56.19.563.4 1.164.595 1.797.206.632.463 1.283.65 1.966.245.671.486 1.36.716 2.064.21.71.495 1.407.753 2.112.264.702.502 1.417.807 2.092.234.709.53 1.378.798 2.04.318.633.508 1.322.801 1.915.282.598.492 1.21.746 1.744l.651 1.508.502 1.205c.285.674.427 1.097.427 1.097M9.841 50.183s.325.43.817 1.173c.234.377.548.817.9 1.316.336.505.716 1.065 1.15 1.658.4.609.911 1.219 1.383 1.89.456.68 1.08 1.304 1.583 2.026.568.68 1.127 1.4 1.775 2.062.575.723 1.245 1.38 1.882 2.064.658.662 1.288 1.357 1.986 1.96l1.993 1.845c.69.544 1.314 1.148 1.953 1.664l1.815 1.472c.57.46 1.108.872 1.592 1.238.479.381.9.723 1.263.979.716.57 1.124.897 1.124.897l-1.447-.063a11.962 11.962 0 0 1-1.642-.234 13.21 13.21 0 0 1-2.083-.541c-.768-.21-1.56-.535-2.38-.923-.845-.347-1.668-.836-2.517-1.353-.822-.55-1.707-1.09-2.478-1.796-.812-.658-1.555-1.414-2.326-2.145-.688-.81-1.403-1.593-2.014-2.439-.618-.842-1.133-1.734-1.65-2.575a22.191 22.191 0 0 1-1.221-2.58 16.683 16.683 0 0 1-.81-2.416 13.982 13.982 0 0 1-.453-2.097 11.822 11.822 0 0 1-.175-1.644c-.04-.918-.02-1.438-.02-1.438" fill="#D89603"/><path d="M133.735 207.604c-12.335-12.084-11.984-24.562-5.1-26.834 6.885-2.271 23.87 6.127 30.785 19.238 6.916 13.111-12.924 20.1-25.685 7.596m20.588-48.403c-13.878-9.725-2.647-18.22 3.818-18.649 6.465-.426 26.048 9.477 21.17 17.074-4.878 7.599-19.57 5.372-24.988 1.575m-75.769 4.865c-2.208-6.09 17.132-15.826 22.906-13.744 5.775 2.081-1.78 14.061-7.54 15.213-5.761 1.153-12.845 5.48-15.366-1.47" fill="#FCE777"/><path d="M34.39 70.721c-9.812-4.27-26.004-15.291-19.707-29.594 6.297-14.304 48.197-25.81 58.51-22.477 10.314 3.333 19.395 24.893 13.032 31.66-6.363 6.768-42.589 22.687-53.004 18.068m231.426 5.854c-11.445-6.932-15.256-12.159-13.93-16.253 1.325-4.094 4.3-24.804 19.067-22.579 14.765 2.225 31.268 12.175 29.627 24.531-1.643 12.355-11.966 16.359-17.436 18.69-5.47 2.329-13.506-2.074-17.328-4.39m-23.739-33.613c2.487-10.13-11.32-23.29-30.644-27.349l-.006-.005c-9.245-3.808-68.472-11.154-94.973-1.99-1.615.33-3.166.74-4.62 1.249-14.067 4.914-16.977 17.796-16.034 26.115.942 8.32 16.305 16.218 27.707 17.047 9.342.68 25.13-1.526 31.888-6.227 1.059-.736 1.93-1.812 2.625-3.133l.001.001s4.345-6.268 1.775-15.256a35.002 35.002 0 0 0-.57-3.14c-.056-4.315 5.255.225 8.385 7.32 3.668 11.838 22.838 16.447 40.25 19.135 19.193 2.963 31.346-2.072 34.216-13.767" fill="#FFC34A"/><path d="M139.158 155.134c.05-.94-.67-1.985-1.492-2.385-2.253-1.094-4.057.293-6.098 1.148-1.674.702-4.003 1.074-5.263 2.43-.774.832-.89 2.434.081 3.199 1.939 1.523 4.813 1.156 7.065.58 2.64-.676 5.54-1.872 5.707-4.972m20.707-18.336a11.24 11.24 0 0 0-.448-.112c-2.093-.465-3.98 1.55-3.356 3.609.624 2.06 3.314 2.687 4.796 1.137a8.45 8.45 0 0 0 .31-.342c1.32-1.504.632-3.774-1.302-4.292m-44.571 56.942c-1.898-1.845-4.237-2.376-6.81-2.23-2.406.134-3.16 3.38-1.05 4.555 1.752.977 3.296 1.948 5.286 2.49 2.765.756 4.508-2.933 2.574-4.814m45.718-5.611c.139-.402.155-.817.178-1.239.073-1.338-1.755-2.314-2.826-1.511-.34.254-.673.497-.932.836-.451.596-.754 1.304-.488 2.061.185.528.52.977 1.021 1.245a2.173 2.173 0 0 0 1.604.159c.779-.237 1.19-.818 1.443-1.55M66.76 129.154c-.046-1.104-.653-1.989-1.615-2.503-1.28-.685-3.106-.215-3.753 1.138-.65 1.356-.233 3.02 1.138 3.753.96.514 2.038.526 2.978-.047a2.647 2.647 0 0 0 1.252-2.341m163.714-40.971c-2.083-2.757-6.36-3.528-9.616-3.712-1.814-.103-2.685 2.502-1.374 3.637a18.074 18.074 0 0 0 4.026 2.683c1.45.714 3.206 1.602 4.848 1.348 1.713-.265 3.42-2.228 2.116-3.956M224.27 72.94c-2.46-1.315-4.51 2.506-2.045 3.824 2.46 1.315 4.509-2.507 2.044-3.824m-37.42 161.222a2.723 2.723 0 0 0-1.245-3.343 1.99 1.99 0 0 1-.248-.148 4.706 4.706 0 0 1-.683-.61c-.658-.756-1.937-.836-2.782-.456-.922.414-1.543 1.366-1.505 2.393.072 1.9 1.406 3.59 3.334 3.88 1.353.2 2.634-.39 3.129-1.716m-34.372 8.446c-.832-3.168-5.689-1.686-4.86 1.473.614 2.331.546 4.67.168 7.033-.335 2.09-1.185 4.355-.396 6.42.479 1.251 1.714 1.684 2.892 1.098 5.15-2.559 3.33-11.712 2.196-16.024m-2.761 21.728c-1.397-.746-2.559 1.422-1.16 2.17 1.396.747 2.558-1.423 1.16-2.17" fill="#FFC543"/></g></svg>